<svg xmlns="http://www.w3.org/2000/svg" xmlns:xlink="http://www.w3.org/1999/xlink" width="256" height="256" version="1.1" viewBox="0 0 256 256"><defs><linearGradient id="linearGradient-1" x1="50%" x2="50%" y1="100%" y2="0%"><stop offset="0%" stop-color="#0F2027"/><stop offset="100%" stop-color="#347B9A"/></linearGradient></defs><g id="Artboard" fill="none" fill-rule="evenodd" stroke="none" stroke-width="1"><g id="Group"><rect id="Rectangle" width="256" height="256" x="0" y="0" fill="url(#linearGradient-1)"/><path id="Shape" fill="#FFF" fill-rule="nonzero" d="M194.642521,81.1445216 C193.446855,65.5920745 181.722977,53.0196105 166.549655,50.494022 C164.729703,50.1928535 162.878008,50 160.968116,50 C159.039707,50 157.153623,50.1770025 155.312509,50.494022 C150.839341,51.2601524 146.667736,52.9007282 142.969636,55.2308213 C139.358829,57.5054361 136.195075,60.4114479 133.684705,63.8431837 C133.610637,63.9356478 133.523343,64.0201863 133.459856,64.117934 C133.282623,64.363624 34,205.994716 34,205.994716 C34.1957507,205.994716 90.9581539,206 114.374166,206 C158.687885,206.005284 194.621359,170.195292 194.758914,125.971075 C194.758914,125.89182 194.761559,125.809924 194.764204,125.728027 L194.764204,107.848129 L222,94.5227434 L194.642521,81.1445216 Z M163.998674,86 C161.235481,86 159,83.758026 159,80.9960202 C159,78.2340143 161.235481,76 163.998674,76 C166.759215,76 169,78.2340143 169,80.9960202 C168.997348,83.758026 166.759215,86 163.998674,86 Z"/></g></g></svg>